PathFileType	4	(X/Y/Z)	/Users/itak/Documents/Research/Walk-IL/dataset/trc/00159_00008.trc
DataRate	CameraRate	NumFrames	NumMarkers	Units	OrigDataRate	OrigDataStartFrame	OrigNumFrames
100.000000	100.000000	4	53	mm	100.000000	415	554
Frame#	Time	RPSI			LPSI			L3			STRN			T10			C7			CLAV			RBAK			LBAK			LSHO			LUPA			LAEL			LAOL			LWTS			LWPS			LFRA			LIFD			LHPS			LHTS			RSHO			RUPA			RAEL			RAOL			RWTS			RWPS			RFRA			RIFD			RHTS			RHPS			RBHD			LFHD			RFHD			LBHD			LHIP			RHIP			RASI			LASI			LKNE			LTHI			LANK			LTIP			LTOE			LMT1			LMT5			LHEE			RKNE			RTHI			RANK			RTIP			RTOE			RMT1			RMT5			RHEE			
		X1	Y1	Z1	X2	Y2	Z2	X3	Y3	Z3	X4	Y4	Z4	X5	Y5	Z5	X6	Y6	Z6	X7	Y7	Z7	X8	Y8	Z8	X9	Y9	Z9	X10	Y10	Z10	X11	Y11	Z11	X12	Y12	Z12	X13	Y13	Z13	X14	Y14	Z14	X15	Y15	Z15	X16	Y16	Z16	X17	Y17	Z17	X18	Y18	Z18	X19	Y19	Z19	X20	Y20	Z20	X21	Y21	Z21	X22	Y22	Z22	X23	Y23	Z23	X24	Y24	Z24	X25	Y25	Z25	X26	Y26	Z26	X27	Y27	Z27	X28	Y28	Z28	X29	Y29	Z29	X30	Y30	Z30	X31	Y31	Z31	X32	Y32	Z32	X33	Y33	Z33	X34	Y34	Z34	X35	Y35	Z35	X36	Y36	Z36	X37	Y37	Z37	X38	Y38	Z38	X39	Y39	Z39	X40	Y40	Z40	X41	Y41	Z41	X42	Y42	Z42	X43	Y43	Z43	X44	Y44	Z44	X45	Y45	Z45	X46	Y46	Z46	X47	Y47	Z47	X48	Y48	Z48	X49	Y49	Z49	X50	Y50	Z50	X51	Y51	Z51	X52	Y52	Z52	X53	Y53	Z53	

416	4.15	794.9124145507812	1050.09912109375	95.79126739501953	787.0377807617188	1052.791625976562	-27.17727088928223	789.3618774414062	1089.642944335938	37.93046188354492	1037.437622070312	1311.510009765625	14.96543216705322	743.5315551757812	1247.294555664062	34.82180786132812	797.6432495117188	1519.7451171875	12.76534938812256	1002.971557617188	1423.39208984375	6.706002235412598	745.2178344726562	1343.28125	130.6053924560547	786.1495361328125	1494.846923828125	-86.20198059082031	857.8312377929688	1483.353759765625	-169.3722839355469	821.3886108398438	1348.027709960938	-234.5909729003906	837.7032470703125	1130.276733398438	-241.9797058105469	806.477294921875	1116.710083007812	-160.9315338134766	968.2283325195312	908.736328125	-218.2230834960938	882.778076171875	880.2763671875	-245.7410430908203	856.5245361328125	1020.1279296875	-253.0740203857422	986.380615234375	726.7586059570312	-183.8361968994141	909.314697265625	812.2297973632812	-243.0214996337891	980.9935302734375	829.7182006835938	-236.9295501708984	872.8961181640625	1503.472290039062	190.2890014648438	857.427978515625	1440.028198242188	261.9245300292969	851.5919799804688	1157.536987304688	341.0777587890625	846.7891845703125	1143.892578125	245.6679229736328	1029.179565429688	958.2252197265625	325.9576416015625	959.4274291992188	927.0078735351562	371.022216796875	888.7653198242188	1088.739135742188	360.9157409667969	1080.890258789062	777.7935791015625	305.08251953125	1073.636352539062	871.8153076171875	336.6482543945312	1003.018920898438	851.44921875	369.4271545410156	860.408935546875	1683.878173828125	87.05826568603516	1018.179748535156	1730.555419921875	-55.66539001464844	1027.515380859375	1729.187255859375	73.77581787109375	841.2650756835938	1692.703491210938	-48.96847915649414	890.8007202148438	1000.710021972656	-153.4447326660156	957.1073608398438	1011.091247558594	209.7965087890625	1031.2744140625	1047.47021484375	149.8692932128906	1008.711975097656	1048.455932617188	-110.7316665649414	1023.159423828125	507.1134033203125	-172.2070159912109	991.6376342773438	653.966552734375	-177.0722503662109	701.2537841796875	149.7166900634766	-105.3819351196289	868.3762817382812	327.8854675292969	-152.4788208007812	895.6561889648438	57.02909469604492	-129.7540130615234	863.684814453125	77.79113006591797	-74.08120727539062	780.5120849609375	91.44230651855469	-164.5789794921875	677.5115356445312	176.8257446289062	-27.54494857788086	1057.932495117188	521.1234130859375	144.9673767089844	1044.637084960938	789.4983520507812	194.9908294677734	1003.057739257812	33.28779983520508	127.3534851074219	1078.859375	399.6326904296875	119.1449966430664	1221.442260742188	38.16458511352539	73.78577423095703	1162.99853515625	41.02153396606445	33.00933074951172	1114.906127929688	28.08188629150391	154.8586730957031	945.953857421875	38.59096527099609	65.55064392089844	
417	4.16	801.32568359375	1050.585693359375	96.35639190673828	793.3335571289062	1053.568237304688	-26.61124420166016	795.6424560546875	1090.377197265625	38.64230346679688	1043.640869140625	1312.0556640625	15.25068759918213	749.8306884765625	1248.122802734375	36.06319046020508	804.019287109375	1520.556762695312	13.72350883483887	1009.223693847656	1423.932006835938	6.931924343109131	751.9046020507812	1344.225952148438	131.9635314941406	792.0885620117188	1495.46826171875	-85.11274719238281	863.3700561523438	1483.827880859375	-168.5845794677734	826.369140625	1348.528930664062	-233.6234130859375	842.6549072265625	1130.829833984375	-241.7471466064453	811.841064453125	1116.904052734375	-160.5960998535156	975.8518676757812	910.8580322265625	-218.4998016357422	890.82763671875	881.2288208007812	-246.1483764648438	862.5945434570312	1020.752624511719	-253.1432647705078	995.5130004882812	729.6378784179688	-184.5119171142578	918.5643310546875	813.6224365234375	-243.8069763183594	989.9589233398438	832.3994750976562	-237.6905975341797	880.1192016601562	1504.36376953125	190.9894409179688	865.0687255859375	1440.991943359375	262.8106994628906	861.2659912109375	1158.593505859375	342.9408874511719	855.7718505859375	1144.582275390625	247.63720703125	1041.344360351562	961.7103271484375	326.7146301269531	972.3265380859375	929.4527587890625	372.2456359863281	899.3555908203125	1090.179443359375	362.5796203613281	1095.744018554688	782.1600952148438	305.6533813476562	1087.185791015625	876.0391845703125	337.1944580078125	1017.071166992188	854.58984375	370.4344177246094	867.66650390625	1685.361572265625	87.00218963623047	1024.560913085938	1730.558959960938	-57.14550399780273	1034.779052734375	1730.2138671875	72.22083282470703	847.6156616210938	1693.172729492188	-48.96652221679688	894.6210327148438	1002.346008300781	-153.5171813964844	963.0897827148438	1011.328308105469	210.4802856445312	1037.320922851562	1047.747436523438	150.6843414306641	1015.29345703125	1049.6455078125	-109.9315872192383	1031.869995117188	508.8631591796875	-171.8056488037109	999.71484375	655.60986328125	-176.9658203125	723.9132690429688	138.9405059814453	-107.12060546875	883.11376953125	324.2142333984375	-153.0689849853516	922.4420776367188	56.12627410888672	-133.2271270751953	889.7373046875	74.28543090820312	-77.21300506591797	805.5451049804688	85.3363037109375	-167.1658935546875	699.2876586914062	163.8757171630859	-28.83133697509766	1059.962768554688	520.8147583007812	145.2938232421875	1049.24609375	789.3052978515625	195.2101593017578	1003.119445800781	33.46843719482422	127.1776657104492	1080.326904296875	399.3341674804688	119.2955093383789	1221.626831054688	38.07751846313477	73.78724670410156	1163.13720703125	40.87787628173828	32.9255256652832	1114.957641601562	28.21826934814453	154.7860565185547	946.0864868164062	38.77865600585938	65.31383514404297	
418	4.17	807.5524291992188	1050.995849609375	96.8626708984375	799.5100708007812	1054.280029296875	-26.11224365234375	801.7408447265625	1091.032348632812	39.26410675048828	1049.680541992188	1312.551635742188	15.53639507293701	755.9635009765625	1248.86083984375	37.18719482421875	810.2115478515625	1521.279052734375	14.60196018218994	1015.3017578125	1424.419311523438	7.165724754333496	758.3944702148438	1345.076782226562	133.2201232910156	797.8591918945312	1495.988403320312	-84.09809875488281	868.82568359375	1484.2421875	-167.8428649902344	831.4193115234375	1348.976196289062	-232.7512817382812	847.84765625	1131.3642578125	-241.7058563232422	817.2381591796875	1117.048095703125	-160.5493774414062	983.4234008789062	912.8468627929688	-218.875244140625	898.8583984375	882.1654663085938	-246.7604370117188	868.84423828125	1021.379516601562	-253.4053039550781	1004.187133789062	732.3700561523438	-185.1999053955078	927.6422729492188	814.9573974609375	-244.6967315673828	998.7528686523438	834.879638671875	-238.4769744873047	887.0946655273438	1505.182373046875	191.6433410644531	872.4638671875	1441.862915039062	263.6401977539062	870.6824951171875	1159.539428710938	344.5816955566406	864.5424194335938	1145.189575195312	249.3863525390625	1053.172241210938	965.08251953125	327.3701171875	984.8594970703125	931.8067016601562	373.2866516113281	909.6500854492188	1091.520629882812	364.0324401855469	1110.243286132812	786.4481811523438	306.1654357910156	1100.359130859375	880.1664428710938	337.6890563964844	1030.733764648438	857.6502075195312	371.3012390136719	874.7473754882812	1686.786865234375	86.87812042236328	1030.748657226562	1730.441162109375	-58.67668533325195	1041.85791015625	1731.141479492188	70.59333801269531	853.7947998046875	1693.558715820312	-49.02347564697266	898.6674194335938	1003.839904785156	-153.5529174804688	968.9981689453125	1011.535583496094	211.0847015380859	1043.247802734375	1048.00439453125	151.3811187744141	1021.696350097656	1050.794311523438	-109.2234878540039	1039.748901367188	510.4009399414062	-171.2731018066406	1007.110473632812	657.0606689453125	-176.7859802246094	746.5457153320312	128.2941589355469	-109.2502212524414	897.305419921875	320.5172729492188	-153.7869110107422	948.7372436523438	55.72819900512695	-136.8563537597656	915.4403076171875	71.21142578125	-80.54261016845703	830.4314575195312	79.55123138427734	-170.0558319091797	721.0218505859375	150.9379272460938	-30.53969383239746	1062.009521484375	520.5270385742188	145.6001739501953	1053.8134765625	789.1226806640625	195.3976287841797	1003.17138671875	33.64871597290039	127.0109558105469	1081.81201171875	399.0520324707031	119.4497528076172	1221.79833984375	38.0008430480957	73.80959320068359	1163.255493164062	40.71311569213867	32.86254119873047	1115.004150390625	28.33524513244629	154.7218627929688	946.216064453125	38.97826385498047	65.09827423095703	
419	4.18	813.600341796875	1051.338989257812	97.28955841064453	805.5631713867188	1054.917114257812	-25.69969749450684	807.6651611328125	1091.601806640625	39.77765655517578	1055.558349609375	1313.023193359375	15.82409191131592	761.9309692382812	1249.508178710938	38.17705917358398	816.2089233398438	1521.91015625	15.39476108551025	1021.198425292969	1424.87451171875	7.41268253326416	764.682861328125	1345.828857421875	134.3602905273438	803.46728515625	1496.4189453125	-83.17143249511719	874.2045288085938	1484.609619140625	-167.1510620117188	836.5540771484375	1349.38671875	-231.9901733398438	853.265380859375	1131.882080078125	-241.8298187255859	822.6837158203125	1117.164184570312	-160.7464447021484	990.9376220703125	914.6971435546875	-219.3638305664062	906.8248901367188	883.0733642578125	-247.5171508789062	875.233642578125	1022.00732421875	-253.8221435546875	1012.490539550781	734.9253540039062	-185.9276885986328	936.51416015625	816.2200927734375	-245.6431579589844	1007.356018066406	837.1458129882812	-239.3041381835938	893.7871704101562	1505.940673828125	192.2470397949219	879.5802612304688	1442.647583007812	264.4055480957031	879.8212890625	1160.38134765625	345.9904479980469	873.0972290039062	1145.728515625	250.9003753662109	1064.644409179688	968.3353271484375	327.9202880859375	997.0059814453125	934.0678100585938	374.1421203613281	919.6336059570312	1092.767578125	365.2677307128906	1124.341064453125	790.6398315429688	306.6106262207031	1113.133422851562	884.1854248046875	338.1287536621094	1043.9755859375	860.621826171875	372.0234069824219	881.6530151367188	1688.164916992188	86.68888854980469	1036.74853515625	1730.19189453125	-60.25385284423828	1048.75927734375	1731.965087890625	68.89671325683594	859.8043823242188	1693.868774414062	-49.13607025146484	903.1199340820312	1005.155334472656	-153.5368957519531	974.8224487304688	1011.738098144531	211.6091461181641	1049.053833007812	1048.271362304688	151.9715576171875	1027.92333984375	1051.892700195312	-108.6084976196289	1046.854858398438	511.7143249511719	-170.5703125	1013.844299316406	658.2965087890625	-176.50146484375	769.0349731445312	117.9173583984375	-111.7673797607422	910.9758911132812	316.8461303710938	-154.6150817871094	974.39990234375	55.88243103027344	-140.4503936767578	940.6182861328125	68.64646148681641	-83.92278289794922	855.0690307617188	74.16797637939453	-173.1875457763672	742.5708618164062	138.2206726074219	-32.70336151123047	1064.068725585938	520.2669067382812	145.8939514160156	1058.331298828125	788.9613037109375	195.569091796875	1003.21337890625	33.82662582397461	126.8467483520508	1083.311401367188	398.7964172363281	119.6045761108398	1221.960815429688	37.93436813354492	73.85517883300781	1163.349487304688	40.51059722900391	32.82900238037109	1115.045532226562	28.43162155151367	154.6697845458984	946.3388061523438	39.18217849731445	64.89823150634766	
